<?xml version="1.0" encoding="UTF-8"?>
<svg xmlns="http://www.w3.org/2000/svg" viewBox="0 0 1275.37 1173.46">
  <defs>
    <style>
      .cls-1 {
        fill: #e8f2fc;
      }

      .cls-1, .cls-2 {
        stroke: #000;
        stroke-miterlimit: 10;
        stroke-width: 5px;
      }

      .cls-2 {
        fill: #aab8bc;
      }

      .cls-3 {
        isolation: isolate;
      }

      .cls-3, .cls-4 {
        fill: none;
      }

      .cls-5 {
        fill: #053f57;
      }

      .cls-6 {
        fill: #f1bd69;
      }

      .cls-7 {
        fill: #f1a784;
      }

      .cls-8 {
        fill: #fff;
      }

      .cls-9 {
        fill: #f75553;
      }

      .cls-10 {
        fill: #e69dc4;
      }

      .cls-11 {
        fill: #fe9f73;
      }

      .cls-12 {
        fill: #aac9f8;
      }

      .cls-13 {
        fill: #c3eaf1;
      }

      .cls-14 {
        fill: #21111d;
      }

      .cls-15 {
        fill: #093c57;
      }

      .cls-16 {
        fill: #61a3c5;
      }

      .cls-17 {
        fill: #2a82b2;
      }

      .cls-18 {
        fill: #3088b6;
      }

      .cls-19 {
        fill: #397fa1;
      }

      .cls-20 {
        fill: #258d8c;
      }

      .cls-21 {
        fill: #26c0b6;
      }

      .cls-4 {
        mix-blend-mode: color-burn;
        opacity: .76;
      }
    </style>
  </defs>
  <g class="cls-3">
    <g id="Layer_1" data-name="Layer 1">
      <g>
        <rect class="cls-2" x="536.53" y="719.12" width="209.69" height="439.3"/>
        <path class="cls-13" d="m421.66,918.97c-2.04,5.91-15.54,10.72-24.6,12.94-9.07,2.22-83.23,8.32-85.26,8.32-.9,0-1.38-6.88-1.6-15.34,17.8-.73,90.03-3.81,98.15-5.75,8.11-1.95,11.39-5.89,11.06-10.58.26.06.45.13.59.22,1.29.92,3.7,4.25,1.66,10.18Z"/>
        <path class="cls-13" d="m360.72,884.47s-7.49,8.88-6.66,13.32c.83,4.44,3.88,7.21,7.21,3.88,3.33-3.33,8.32-14.15,8.32-14.15l-8.88-3.05Z"/>
        <path class="cls-13" d="m375.7,891.4s-8.88,11.93-7.49,15.26c1.39,3.33,4.72,6.38,7.77,3.33,3.05-3.05,8.88-13.04,8.88-14.15s-9.16-4.44-9.16-4.44Z"/>
        <rect class="cls-17" x="138.22" y="839.23" width="63.44" height="19.42"/>
        <path class="cls-13" d="m148.13,903.81s5.26,5.62,10.88,5.62,11.93-3.51,11.93-5.26-6.32-5.26-11.58-5.26-10.88,1.76-11.23,4.91Z"/>
        <rect class="cls-17" x="281.28" y="841" width="77.31" height="19.42" transform="translate(-42.87 17.38) rotate(-2.92)"/>
        <path class="cls-15" d="m187.5,919.42c-1.05,18.61-7.67,30.15-25.27,30.54-15.79.36-28.43-6.31-28.08-27.38.02-1.01.04-2.1.09-3.24.31-8.73,1.45-20.8,5.17-30.11,4.22-10.53,15.09-20.35,23.52-20.35,5.62,0,13,3.16,16.5,9.12,4.34,7.38,6.99,20.35,7.85,31.03.31,3.9.39,7.49.22,10.39Z"/>
        <path class="cls-13" d="m187.5,919.42c-1.05,18.61-7.67,30.15-25.27,30.54-15.79.36-28.43-6.31-28.08-27.38.02-1.01.04-2.1.09-3.24,5.84,9.2,14.69,18.32,26.62,17.56,16.34-1.04,23.53-17.72,26.41-27.87.31,3.9.39,7.49.22,10.39Z"/>
        <path class="cls-15" d="m149.54,888.37s-12.64-13.34-10.18-17.55c2.46-4.21,44.58-5.26,47.74-1.4,3.16,3.86-9.13,16.5-12.64,17.55-3.51,1.05-24.92,1.4-24.92,1.4Z"/>
        <path class="cls-15" d="m421.66,918.97c-2.04,5.91-15.54,10.72-24.6,12.94-9.07,2.22-83.23,8.32-85.26,8.32-.9,0-1.38-6.88-1.6-15.34-.28-10.59-.17-23.64-.07-28.68.18-9.07,2.4-10.73,2.4-10.73,2.41,2.22,20.35-2.22,22.02-3.88,1.66-1.66.37-13.51,1.29-16.09.93-2.59,13.51-.92,15.91,1.48,2.4,2.41.92,18.13,3.33,18.13s50.12,22.75,52.71,23.3c2.33.5,9.3-.36,11.62.14.26.06.45.13.59.22,1.29.92,3.7,4.25,1.66,10.18Z"/>
        <path class="cls-7" d="m306.43,852.37c0,.55,7.77,39.77,7.77,40.32s23.49-4.81,23.49-6.66-3.7-39.21-3.7-39.21l-27.56,5.55Z"/>
        <polygon class="cls-7" points="151.25 844.79 152.64 877.53 174.28 875.31 176.78 849.79 151.25 844.79"/>
        <path class="cls-2" d="m2.5,878.79v96.44c0,20.06,13.26,36.32,29.61,36.32h1211.14c16.36,0,29.61-16.26,29.61-36.32v-96.44H2.5Z"/>
        <path class="cls-2" d="m1272.87,878.79V277c0-28.59-23.18-51.77-51.77-51.77H54.27c-28.59,0-51.77,23.18-51.77,51.77v601.79h1270.37Z"/>
        <path class="cls-1" d="m1243.13,852.66V278.61c0-15.05-12.64-27.25-28.23-27.25H60.47c-15.59,0-28.23,12.2-28.23,27.25v574.05h1210.9Z"/>
        <g>
          <path class="cls-7" d="m451.26,257.73s21.45-14.06,31.07-22.19c9.62-8.14,15.54-21.46,21.46-23.67,5.92-2.22,2.96,10.36.74,13.32-2.22,2.96,7.4-3.7,12.58.74,5.18,4.44-2.22,25.89-15.54,28.85-13.32,2.96-35.51,14.06-39.21,18.5-3.7,4.44-11.1-15.54-11.1-15.54Z"/>
          <path class="cls-21" d="m469,277.71c-2.22,6.66-49.56,54.01-64.37,61.4-14.79,7.4-28.85,5.93-56.22-11.1-27.38-17.01-51.79-28.85-54.75-40.69-1.33-5.32-3.85-29.8-6.23-55.12-2.92-30.98-5.6-63.24-5.6-63.24,0,0,15.54-5.93,27.37,8.88,11.84,14.79,62.15,108.75,68.8,108.75s65.85-40.69,71.02-38.48c4.27,1.83,16.59,16.25,19.54,24.97.62,1.86.82,3.46.43,4.63Z"/>
          <g class="cls-4">
            <path class="cls-10" d="m469,277.71c-2.22,6.66-49.56,54.01-64.37,61.4-14.79,7.4-28.85,5.93-56.22-11.1-27.38-17.01-51.79-28.85-54.75-40.69-1.33-5.32-3.85-29.8-6.23-55.12,21.6,28.24,61.45,76.59,88.08,86.57,25.55,9.57,67.91-23.1,93.05-45.69.62,1.86.82,3.46.43,4.63Z"/>
          </g>
          <path class="cls-18" d="m346.57,849.23c1.04,3.77-16.16,3.48-30.87,5.38-12.82,1.64-23.92-2.49-23.5-2.05s-44.39-260.79-49.94-275.22c-5.55-14.43-36.62-211.96-33.29-219.73.3-.7,1.29-1.33,2.84-1.88,15.49-5.5,87.05-3.67,87.05-3.67,0,0,1.11,13.32,6.66,51.05,5.55,37.73,18.87,98.77,18.87,129.84s21.15,312.51,22.19,316.28Z"/>
          <g class="cls-4">
            <path class="cls-10" d="m315.61,853.82c-12.81,1.64-24.52,2.08-23.49-2.05,2.22-8.86-44.35-260.37-49.9-274.78-5.54-14.4-36.59-211.62-33.27-219.38.3-.7,1.29-1.33,2.84-1.87l60.37,263.35,43.45,234.72Z"/>
          </g>
          <path class="cls-18" d="m278.87,359.83s-39.95,259.68-46.61,289.64c-6.66,29.96-36.62,198.64-41.06,200.86-4.44,2.22-43.28,6.66-43.28-1.11s-9.99-397.29-5.55-416.15c4.44-18.87,42.17-89.89,42.17-89.89l94.33,16.65Z"/>
          <path class="cls-6" d="m81.34,441.95l117.63-37.73s34.03,76.2,31.81,76.94c-2.22.74-116.89,46.61-116.89,46.61l-32.55-85.82Z"/>
          <path class="cls-7" d="m152.32,421.21s19.24,61.41,27.37,61.41-11.1,7.4-13.32,0c-2.22-7.4,8.88,16.28,17.02,16.28s-15.54,19.98-28.11,10.36c-12.58-9.62-28.11-72.5-28.11-82.12s25.15-5.92,25.15-5.92Z"/>
          <path class="cls-21" d="m311.29,346.42c-1.13,6.4-2.77,11.99-5.04,16.37-11.84,22.94-28.85-4.44-53.27,8.15-24.41,12.57-67.33-5.93-77.68-13.32-10.37-7.4-31.07-163.51-30.34-170.17.2-1.8,4.28-4.03,10.15-6.33,15.84-6.21,40.9-23.26,40.9-23.26,0,0,42.17-.74,46.61-.74s37,8.13,45.13,11.1c8.13,2.96,11.84,46.61,18.5,81.38,5.38,28.12,9.8,69.78,5.04,96.83Z"/>
          <g class="cls-4">
            <path class="cls-10" d="m311.29,346.42c-1.13,6.4-2.77,11.99-5.04,16.37-11.84,22.94-28.85-4.44-53.27,8.15-24.41,12.57-67.33-5.93-77.68-13.32-10.37-7.4-31.07-163.51-30.34-170.17.2-1.8,4.28-4.03,10.15-6.33,16.42,13.33,40.79,42.14,34.27,92.79-9.64,74.83-14.08,87.4,24.38,85.93,38.47-1.48,55.92-11.15,74.2-4.09,9.1,3.51,17.52,1.05,23.33-9.32Z"/>
          </g>
          <path class="cls-21" d="m158.57,179.83s-13.63,2.81-20.26,12.8c-2.22,6.66-43.65,119.85-42.91,133.91.74,14.06,19.98,124.29,29.59,126.51,9.62,2.22,47.35-6.66,47.35-12.58s-12.28-78.38-17.76-102.1c-2.22-9.62,20.06-61.9,31.44-87.67,14.06-31.81-27.45-70.88-27.45-70.88Z"/>
          <path class="cls-7" d="m242.62,134.19c-1.68,2.93-1.45,19.37-.94,33.08.39,10.52.94,19.44.94,19.44,0,0-5.92,2.65-13.49,0-15.07-5.26-37.12-18.26-35.15-22.19,1.69-3.37,3.7-10.49,4.63-28.07-.01-.01,0-.01,0-.01.7-13.24,1.11-24.45,1.11-24.45,0,0,45.87,17.01,42.9,22.19Z"/>
          <g class="cls-4">
            <path class="cls-10" d="m242.62,134.19c-1.68,2.93-1.45,19.37-.94,33.08-26.91-2.84-38.46-16.65-43.07-30.82-.01-.01,0-.01,0-.01.7-13.24,1.11-24.45,1.11-24.45,0,0,45.87,17.01,42.9,22.19Z"/>
          </g>
          <ellipse class="cls-7" cx="233.37" cy="93.5" rx="44.76" ry="54.75"/>
          <path class="cls-5" d="m227.08,66.86s6.66,17.02,1.48,23.67c-5.18,6.66,25.15-20.72,28.11-33.29,2.96-12.58,17.76,14.8,15.54,23.67-2.22,8.88,11.1-2.96,14.8-23.67,3.7-20.72-3.78-36.03-15.54-46.61-14.8-13.32-62.89-15.54-85.82,1.48-22.93,17.02-25.89,31.07-25.89,31.07,0,0-16.28-4.44-28.11,14.06-5.2,8.12-17.76,38.27,5.92,62.68,23.67,24.41,55.49,17.96,61.41,9.08,5.92-8.88-6.66-14.8-2.96-24.41,3.7-9.62,15.54-1.48,12.58,0-2.96,1.48,18.5-6.66,18.5-37.73Z"/>
          <path class="cls-7" d="m209.46,99.87c3.49,7.16.95,15.58-5.66,18.8-6.61,3.22-14.8.02-18.29-7.14-3.49-7.16-.95-15.58,5.66-18.8,6.61-3.22,14.8-.02,18.29,7.14Z"/>
          <path class="cls-13" d="m196.01,157.86s-10.36,6.66-5.18,14.06,28.11,39.21,28.11,39.21l11.1-22.19s16.28,9.62,18.5,6.66c2.22-2.96,0-30.33-1.48-35.51-1.48-5.18-5.18-5.92-5.18-5.92,0,0-8.14,31.07-11.1,31.07s-34.77-27.37-34.77-27.37Z"/>
          <path class="cls-15" d="m251.5,352.81c-.15,0-.3-.03-.45-.1-.56-.25-.81-.9-.56-1.46,1.82-4.13-5.92-68.16-10.54-106.41-3.98-32.88-4.58-38.38-4.29-39.23.19-.58.82-.9,1.4-.7.54.18.85.73.74,1.27-.09,1.64,1.97,18.68,4.35,38.4,6.81,56.31,12.29,103.26,10.37,107.58-.18.41-.59.66-1.02.66Z"/>
        </g>
        <rect class="cls-1" x="147.11" y="852.5" width="215" height="0"/>
        <path class="cls-2" d="m925.01,1170.96c3.56-20.76-10.39-37.59-31.15-37.59h-504.62c-20.76,0-40.48,16.83-44.04,37.59h0s579.8,0,579.8,0Z"/>
        <rect class="cls-14" x="1180.51" y="923.53" width="49.56" height="3.04" transform="translate(-248.96 1365.03) rotate(-54.34)"/>
        <rect class="cls-14" x="1180.95" y="943.1" width="48.68" height="3.04" transform="translate(-270.42 1353.64) rotate(-53.58)"/>
        <rect class="cls-14" x="579.62" y="1032.03" width="28.99" height="3.03" transform="translate(-598.01 1036.58) rotate(-60.25)"/>
        <rect class="cls-14" x="582.99" y="1047.99" width="25.71" height="3.03" transform="translate(-610.89 1032.4) rotate(-59.6)"/>
        <path class="cls-9" d="m461.7,668.1l-13.18,9.64c-2.03,1.48-2.47,4.33-.99,6.36.89,1.22,2.27,1.86,3.68,1.86.93,0,1.87-.29,2.69-.88l10.53-7.7,9.26,31.6c.58,1.99,2.4,3.27,4.37,3.27.42,0,.86-.06,1.28-.19,2.41-.71,3.8-3.24,3.09-5.65l-10.19-34.75,13.98-10.23,16.55,21.6c1.53,2,4.39,2.38,6.38.85,2-1.53,2.37-4.39.85-6.38l-16.43-21.44,8.89-6.5c2.03-1.48,2.47-4.33.99-6.36-1.48-2.03-4.34-2.47-6.36-.99l-9.05,6.62-30.73-40.11c-1.92-2.51-5.23-3.26-8.05-1.83-2.82,1.43-4.16,4.55-3.28,7.57l15.72,53.63Zm18.98-13.88l-11.17,8.17-10.8-36.84,21.96,28.67Z"/>
        <path class="cls-20" d="m510.64,577.3c3.21,0,4.07-1.85,6.9-7.97.37-.8.73-1.57,1.09-2.33l7.35,25.19c-.1.26-.19.53-.29.79-.15.3-.27.61-.34.93-1.82,4.92-3.74,9.64-5.61,13.86-1.02,2.3.02,4.99,2.32,6.01.6.27,1.23.39,1.84.39,1.75,0,3.41-1.01,4.16-2.71.5-1.12,1.23-2.8,2.11-4.91l10.72,36.72c.58,1.99,2.4,3.28,4.37,3.28.42,0,.85-.06,1.28-.18,2.41-.7,3.8-3.23,3.09-5.65l-.96-3.28c8.45-4.34,29.19-16.39,35.13-32.82,2.55-7.06,2.15-14.07-1.18-20.84-4.43-9.01-10.88-11.76-15.52-12.48-9.46-1.47-19.8,3.86-27.71,9.49,4.46-15.26,7.19-31.86,1.48-39.9-3.17-4.47-6.95-4.83-8.91-4.65-4.04.37-7.75,3.56-11.23,8.28-1.12-.93-2.67-1.3-4.18-.86-2.41.7-3.8,3.23-3.09,5.65l1.4,4.8c-1.92,3.61-3.77,7.49-5.59,11.4-.74,1.6-1.57,3.38-1.98,4.15-.75.81-1.22,1.9-1.22,3.1,0,2.52,2.04,4.55,4.55,4.55Zm55.07,3c3.69.58,6.55,3.03,8.74,7.5,2.23,4.53,2.49,9.02.79,13.72-4.5,12.47-20.97,22.6-29.17,26.99l-9.77-33.48c7.08-6.43,20.14-16.2,29.41-14.73Zm-33.01-34.98c.12.09.39.31.76.84,3.26,4.59,1.4,17-2.47,30.66l-6.31-21.61c4.46-7.82,6.84-9.67,8.02-9.89Z"/>
        <path class="cls-19" d="m647.27,629.33c4.95,0,10.56-.59,16.93-1.93,2.46-.52,4.04-2.93,3.52-5.39-.51-2.46-2.92-4.04-5.39-3.52-21.27,4.46-34.77.36-40.12-12.2-8.84-20.76,6.09-56.03,16.64-63.22,4.52-3.08,8.77-4.14,12.64-3.15,7.29,1.87,11.67,10.26,11.76,10.43,1.13,2.24,3.86,3.14,6.1,2.02,2.25-1.12,3.16-3.86,2.04-6.11-.25-.5-6.21-12.2-17.56-15.15-6.53-1.7-13.3-.21-20.1,4.43-14.67,10-30.03,50.5-19.88,74.31,4.03,9.47,13.11,19.47,33.44,19.47Z"/>
        <path class="cls-16" d="m578.32,695.91l-96.73,66.4-3.95,39.48-19.9-28-24.4,17.51c-2.04,1.47-2.51,4.31-1.04,6.35,1.47,2.04,4.31,2.51,6.35,1.04l16.97-12.17,28.67,40.34,5.95-59.44,93.24-64c2.07-1.42,2.6-4.26,1.18-6.33-1.42-2.07-4.26-2.6-6.33-1.18Z"/>
        <path class="cls-9" d="m713.57,725.01c-.95-2.33-3.6-3.45-5.93-2.5l-84.09,34.17c-2.33.95-3.45,3.6-2.5,5.93.72,1.77,2.42,2.84,4.22,2.84.57,0,1.15-.11,1.71-.34l84.09-34.17c2.33-.95,3.45-3.6,2.5-5.93Z"/>
        <circle class="cls-9" cx="661.18" cy="720.88" r="7.64"/>
        <path class="cls-9" d="m676.47,760.9c-4.22,0-7.64,3.42-7.64,7.64s3.42,7.64,7.64,7.64,7.64-3.42,7.64-7.64-3.42-7.64-7.64-7.64Z"/>
        <path class="cls-11" d="m636.5,500.45c.88.85,2.02,1.27,3.16,1.27,1.19,0,2.39-.47,3.28-1.39l23.03-23.91,23.03,23.91c.89.93,2.09,1.39,3.28,1.39s2.27-.42,3.16-1.27c1.81-1.74,1.87-4.63.12-6.44l-23.26-24.16,23.26-24.16c1.74-1.81,1.69-4.69-.12-6.44-1.81-1.74-4.69-1.69-6.44.12l-23.03,23.91-23.03-23.91c-1.75-1.81-4.63-1.86-6.44-.12-1.81,1.74-1.87,4.63-.12,6.44l23.26,24.16-23.26,24.16c-1.74,1.81-1.69,4.69.12,6.44Z"/>
        <polygon class="cls-8" points="782.61 315 782.61 789 1135.61 789 1135.61 393 1059.61 315 782.61 315"/>
        <polygon class="cls-12" points="1135.61 393.15 1060.05 315 1060.05 393.15 1135.61 393.15"/>
        <path class="cls-12" d="m1025.61,374h-154c-2.21,0-4-1.79-4-4h0c0-2.21,1.79-4,4-4h154c2.21,0,4,1.79,4,4h0c0,2.21-1.79,4-4,4Z"/>
        <path class="cls-12" d="m1046.61,405h-196c-2.21,0-4-1.79-4-4h0c0-2.21,1.79-4,4-4h196c2.21,0,4,1.79,4,4h0c0,2.21-1.79,4-4,4Z"/>
        <path class="cls-12" d="m1098.61,479h-284c-2.21,0-4-1.79-4-4h0c0-2.21,1.79-4,4-4h284c2.21,0,4,1.79,4,4h0c0,2.21-1.79,4-4,4Z"/>
        <path class="cls-12" d="m1098.61,514h-284c-2.21,0-4-1.79-4-4h0c0-2.21,1.79-4,4-4h284c2.21,0,4,1.79,4,4h0c0,2.21-1.79,4-4,4Z"/>
        <path class="cls-12" d="m1098.61,549h-284c-2.21,0-4-1.79-4-4h0c0-2.21,1.79-4,4-4h284c2.21,0,4,1.79,4,4h0c0,2.21-1.79,4-4,4Z"/>
        <path class="cls-12" d="m1098.61,619h-284c-2.21,0-4-1.79-4-4h0c0-2.21,1.79-4,4-4h284c2.21,0,4,1.79,4,4h0c0,2.21-1.79,4-4,4Z"/>
        <path class="cls-12" d="m1098.61,654h-284c-2.21,0-4-1.79-4-4h0c0-2.21,1.79-4,4-4h284c2.21,0,4,1.79,4,4h0c0,2.21-1.79,4-4,4Z"/>
        <path class="cls-12" d="m1098.61,744h-284c-2.21,0-4-1.79-4-4h0c0-2.21,1.79-4,4-4h284c2.21,0,4,1.79,4,4h0c0,2.21-1.79,4-4,4Z"/>
      </g>
    </g>
  </g>
</svg>
