<?xml version="1.0" encoding="UTF-8"?>
<svg xmlns="http://www.w3.org/2000/svg" viewBox="0 0 189.16 119.28">
  <defs>
    <style>
      .cls-1 {
        fill: #fff;
        stroke: #231f20;
        stroke-miterlimit: 10;
      }
    </style>
  </defs>
  <g id="Layer_2" data-name="Layer 2">
    <path class="cls-1" d="m.59,117.69l33.42-58.32,15.91-27.77c.35-.62,1.49-.61,1.83,0l47.69,85.76c.28.51-.2,1.08-.91,1.09l-97.03.33c-.73,0-1.21-.58-.92-1.09Z"/>
    <path class="cls-1" d="m31.78,63.27l7.52-7.16c.62-.59,1.61-.51,2.12.17l4.03,5.3c.61.8,1.84.73,2.35-.15l2.8-4.84c.54-.93,1.85-1,2.48-.13l3.6,4.92c.69.94,2.09.93,2.76-.02l4.97-6.98"/>
  </g>
  <g id="Layer_3" data-name="Layer 3">
    <path class="cls-1" d="m76.48,118.5l39.4-68.27,16.98-29.42c.36-.62,1.48-.61,1.83,0l53.89,96.22c.29.51-.19,1.09-.91,1.09l-111.19.38Z"/>
    <path class="cls-1" d="m115.88,50.23l4.97-5.97c.2-.24.59-.19.72.1l2.23,5.01c.15.34.63.34.78,0l2.28-4.97c.16-.35.67-.32.8.04l2.41,7.34c.14.41.73.38.82-.04l2.91-12.73c.1-.43.7-.45.83-.03l3.91,12.75c.13.42.72.4.83-.03l1.94-8.17c.09-.38.59-.45.79-.12l3.4,5.88c.19.33.69.26.79-.11l1.33-5.32"/>
  </g>
  <g id="Layer_1" data-name="Layer 1">
    <path class="cls-1" d="m29.28,118.69L88.74.99c.33-.66,1.54-.66,1.87,0l57.49,117.26-118.82.43Z"/>
    <path class="cls-1" d="m75.27,27.67l3.53-5.41c.57-.88,1.87-.85,2.41.05l1.13,1.89c.57.96,1.97.93,2.5-.05l2.44-4.47c.4-.73,1.44-.73,1.85,0l2.78,4.99c.44.8,1.6.79,2.03-.02l2.25-4.2c.27-.51.97-.58,1.34-.14l2.4,4.87c.21.43.84.38.98-.08l.59-1.9"/>
  </g>
</svg>