<svg width="541" height="427" viewBox="0 0 541 427" fill="none" xmlns="http://www.w3.org/2000/svg">
<g clip-path="url(#clip0_87_1198)">
<path d="M460.74 126.23C461.38 126.07 461.71 126.25 461.69 126.99C461.65 128.44 461.64 129.89 461.69 131.34C461.72 132.17 461.08 132.36 460.58 132.67C456.26 135.34 451.94 138 447.62 140.66C447.13 140.68 446.75 140.95 446.35 141.19C437.39 146.64 428.41 152.07 419.46 157.53C408.98 163.91 398.53 170.34 388.05 176.71C376.42 183.78 364.74 190.76 353.13 197.86C346.29 202.05 339.42 206.18 332.63 210.44C328.51 213.02 324.32 215.54 320.02 217.84C318.22 218.81 316.73 220.24 314.97 221.18C309.18 224.25 303.88 228.13 298.15 231.3C295.36 232.84 292.64 234.53 289.96 236.25C287.22 238.01 284.3 239.48 281.76 241.54C281.55 241.72 281.34 241.9 281.13 242.09C280.26 242.01 279.73 242.63 279.12 243.08C278.74 243.1 278.46 243.26 278.39 243.67H278.42C278.11 243.62 277.88 243.76 277.71 244.01C277.54 244.09 277.37 244.17 277.19 244.25C276.22 244.63 275.28 245.06 274.59 245.88C273.32 246.3 272.31 247.17 271.24 247.92C270.9 248.02 270.53 248.06 270.32 248.41C269.47 248.85 268.54 249.2 268.15 250.2L268.12 250.23C265.28 250.67 262.79 249.28 260.27 248.48C256.94 247.42 253.61 246.34 250.25 245.36V245.35C248.76 244.45 247.05 244.18 245.43 243.69C224.4 237.23 203.5 230.34 182.39 224.15C179.32 223.25 176.24 222.21 173.18 221.15C166.77 218.93 160.24 217.05 153.76 215.02C149.96 213.83 146.16 212.6 142.35 211.46C136.54 209.72 130.78 207.79 124.97 206.06C119.13 204.32 113.34 202.41 107.52 200.6C96.9197 197.3 86.3197 193.99 75.6797 190.79C74.2598 190.36 72.8597 189.59 71.2797 189.76C70.7997 189.48 70.3397 189.11 69.8197 188.94C66.2897 187.79 62.7597 186.62 59.1997 185.57C53.8697 183.99 48.5597 182.34 43.2497 180.7C39.0397 179.4 34.8597 177.97 30.6497 176.64C28.1497 175.83 25.6897 174.89 23.1597 174.25C20.9497 173.69 19.1197 172.82 18.1397 170.63C17.9997 170.31 17.7897 169.98 17.3597 169.96C16.2497 167.7 15.0297 165.48 14.0497 163.16C11.7697 157.72 10.1897 152.11 10.1797 146.14C10.3297 145.57 10.3197 145 10.1797 144.42C10.4897 132.99 15.4797 123.68 23.1597 115.56C23.7497 114.94 24.4997 114.6 25.2297 114.21C47.0098 102.66 68.7997 91.12 90.5897 79.59C111.74 68.39 132.89 57.2 154.03 45.99C171.83 36.56 189.62 27.12 207.42 17.68C217.02 12.59 226.65 7.54 236.23 2.41C237.72 1.62 239.11 1.5 240.68 2C253.1 5.98 265.53 9.92 277.96 13.88C288.94 17.38 299.93 20.82 310.87 24.44C316.06 26.16 321.31 27.65 326.5 29.35C336.03 32.47 345.61 35.45 355.17 38.5C362.88 40.96 370.61 43.38 378.29 45.92C381.63 47.02 385.16 47.69 388.25 49.37C390.11 50.38 392.15 50.07 394.01 50.87C395.84 51.65 397.79 52.14 399.7 52.75C406.14 54.81 412.57 56.87 419.01 58.93C429.73 62.36 440.44 65.79 451.17 69.19C453.55 69.95 455.8 71.09 458.26 71.64C460.42 72.13 462.54 72.72 464.6 73.54C465.32 73.83 465.58 74.2 465.5 74.91C465.49 75.01 465.49 75.12 465.5 75.22C466.07 78.35 464.92 80.3 461.96 81.77C458.18 83.66 454.68 86.13 451.06 88.35C450.63 88.52 450.17 88.65 449.77 88.87C444.66 91.76 440.365 94.97 435.345 98C430.955 100.65 425.87 103.19 421.57 105.99C421.37 105.95 421.26 106.05 421.23 106.24C414.18 110.54 407.395 115.21 400.345 119.5C388.805 126.51 377.75 133.85 365.845 140.5C353.815 147.81 341.375 155.19 329.345 162.5C315.815 170.73 302.3 178.55 288.76 186.77C283.06 190.23 278.045 194.4 272.345 197.86C271.825 197.71 271.025 198.06 270.845 198.5C270.345 198.4 270.03 198.29 269.345 198C264.335 196.42 259.56 195.34 254.345 193C246.555 190.54 239.145 188.43 231.345 186C215.055 180.91 198.645 176.08 182.345 171C172.695 167.99 163.28 165.01 153.345 161.5C144.135 158.62 134.41 156.63 125.345 153C117.365 150.5 109.325 147.98 101.345 145.5C90.8298 142.65 80.4148 138.79 69.8448 135.5C58.9248 132.1 47.7748 128.85 36.8448 125.5C34.2998 125.5 31.9548 123.2 29.3448 123C28.1148 122.31 26.5748 122.12 25.3448 121.5C23.8848 120.76 23.6348 121.54 22.8448 122.7C18.0548 129.67 15.1597 136.98 14.9597 145.4C14.7897 152.96 16.6397 160.14 19.5997 167.06C19.8197 167.56 20.1497 167.75 20.6097 167.89C22.0397 168.34 23.4397 168.87 24.8697 169.31C31.1297 171.24 37.3997 173.12 43.6497 175.06C50.1997 177.09 56.7397 179.16 63.2797 181.21C68.3497 182.8 73.4297 184.36 78.4997 185.95C84.0597 187.69 89.6097 189.46 95.1697 191.2C100.73 192.94 106.27 194.78 111.88 196.36C117.46 197.94 122.8 200.23 128.43 201.69C131.88 202.58 135.34 203.71 138.73 204.95C142.09 206.18 145.61 207.04 149.03 208.19C155.65 210.42 162.34 212.47 169.06 214.38C176.76 216.56 184.38 219.02 192 221.47C198.23 223.48 204.55 225.22 210.77 227.27C220.1 230.34 229.56 233.02 238.88 236.15C247.68 239.1 256.63 241.62 265.5 244.38C266.43 244.67 267.18 244.61 267.99 244.12C271.03 242.27 274.04 240.36 277.11 238.56C282.36 235.48 287.48 232.18 292.68 229C297.35 226.15 302.08 223.37 306.74 220.5C311.05 217.85 315.32 215.11 319.65 212.51C322.91 210.55 326.16 208.56 329.47 206.66C333.45 204.37 337.29 201.83 341.23 199.45C346.87 196.04 352.55 192.7 358.18 189.28C363.3 186.18 368.37 182.99 373.49 179.88C378.84 176.64 384.24 173.48 389.57 170.23C396.63 165.93 403.65 161.58 410.68 157.24C416.5 153.64 422.5 150.33 428.21 146.53C433.99 142.68 440.07 139.27 446.02 135.68C450.61 132.91 455.2 130.15 459.8 127.39C460.26 127.12 460.66 126.81 460.72 126.23H460.74Z" fill="#696379"/>
<path d="M276.825 243.885C276.995 243.805 277.165 243.725 277.345 243.645C277.645 243.665 277.935 243.645 278.055 243.305H278.025C278.495 243.395 278.685 243.125 278.755 242.715C279.365 242.265 279.895 241.645 280.765 241.725C281.425 242.175 282.085 242.585 282.495 241.445C284.985 241.315 287.395 240.475 289.905 240.555C290.335 241.045 290.655 240.965 290.865 240.365C291.805 240.455 292.685 240.005 293.585 240.015C296.475 240.015 299.295 239.495 302.145 239.165C306.835 238.625 311.535 238.155 316.195 237.445C317.765 237.205 319.335 237.315 320.905 237.025C323.735 236.515 326.605 236.185 329.465 235.965C333.015 235.695 336.515 235.155 340.035 234.685H340.145H340.255C340.875 234.645 341.505 234.605 342.125 234.565C342.405 235.055 342.635 235.005 342.815 234.495C346.995 233.695 351.245 233.555 355.455 233.045C355.915 233.115 356.395 233.265 356.775 232.835C362.275 232.205 367.775 231.585 373.275 230.955C373.725 231.415 373.815 231.045 373.905 230.685C375.955 230.545 378.015 230.495 380.045 230.225C383.265 229.795 386.485 229.325 389.725 229.135C389.775 229.325 389.815 229.555 390.065 229.545C390.315 229.545 390.335 229.295 390.385 229.115C390.475 229.105 390.565 229.075 390.655 229.045C390.765 228.965 390.885 228.885 390.995 228.805C394.615 228.415 398.225 228.025 401.845 227.635C402.095 228.195 402.315 228.155 402.525 227.615C403.995 227.265 405.525 227.435 406.985 227.175C412.985 226.135 419.055 225.795 425.085 224.995C429.725 224.385 434.425 224.155 439.045 223.435C445.115 222.485 451.235 222.095 457.305 221.275C462.125 220.625 466.955 220.085 471.805 219.615C477.745 219.045 483.665 218.295 489.575 217.495C493.035 217.025 496.535 216.935 499.985 216.325C502.415 215.895 504.885 215.725 507.335 215.445C507.305 221.255 507.285 227.065 507.255 232.885C506.905 233.405 507.075 233.995 507.075 234.545C507.065 245.095 507.065 255.645 507.065 266.195C507.065 268.095 507.075 268.125 508.865 267.505C514.275 265.605 519.665 263.675 525.065 261.755C525.065 272.645 525.045 283.535 525.035 294.435C525.035 294.955 525.065 295.465 525.365 295.915C524.215 296.385 524.815 297.375 524.845 298.065C524.905 299.315 524.485 299.915 523.295 300.305C519.675 301.485 516.025 302.625 512.525 304.095C510.615 304.895 508.695 305.805 506.755 306.415C500.585 308.355 494.595 310.765 488.485 312.855C481.015 315.415 473.625 318.215 466.185 320.895C459.225 323.405 452.205 325.775 445.295 328.405C437.765 331.275 430.145 333.865 422.605 336.695C417.755 338.515 412.915 340.375 408.045 342.135C402.345 344.195 396.595 346.115 390.895 348.175C379.595 352.255 368.285 356.285 356.985 360.375C330.055 370.135 303.135 379.915 276.195 389.675C271.085 391.525 265.865 393.095 260.835 395.125C254.245 397.785 247.475 399.965 240.855 402.535C235.605 404.575 230.215 406.325 224.865 408.135C223.845 408.485 222.895 409.215 221.705 408.935C221.725 396.115 221.735 383.285 221.755 370.465C222.005 370.395 222.255 370.335 222.505 370.255C237.245 364.975 251.975 359.665 266.725 354.415C268.735 353.705 270.615 352.655 272.735 352.245C272.855 352.175 272.965 352.105 273.085 352.035C273.495 351.905 273.915 351.775 274.325 351.645C274.435 351.565 274.535 351.495 274.645 351.415C274.955 351.385 275.265 351.355 275.565 351.325C276.055 351.285 276.645 351.505 276.825 350.775C277.135 350.665 277.445 350.565 277.755 350.455C277.995 350.665 278.025 350.445 278.095 350.295L278.685 350.125C279.195 350.565 279.485 350.415 279.625 349.795H279.635C280.035 349.795 280.455 349.825 280.575 349.285C280.775 349.285 280.965 349.275 281.165 349.265C281.315 349.375 281.415 349.315 281.475 349.155C282.825 348.635 284.185 348.115 285.535 347.595C285.635 347.505 285.735 347.425 285.835 347.335C287.485 347.165 288.895 346.215 290.485 345.875C290.635 345.975 290.735 345.925 290.815 345.785C292.665 345.135 294.515 344.475 296.365 343.825C296.585 343.905 296.845 344.095 297.025 344.045C297.285 343.975 297.045 343.735 297.025 343.565C297.535 343.375 298.045 343.185 298.565 342.995C298.715 343.135 298.815 343.085 298.875 342.905C300.405 342.365 301.925 341.825 303.455 341.295C303.595 341.235 303.725 341.165 303.865 341.105C305.105 340.665 306.345 340.235 307.585 339.795C308.035 340.285 308.145 339.935 308.235 339.535C310.765 338.615 313.235 337.525 315.865 336.905C316.075 336.945 316.215 336.865 316.295 336.675C316.595 336.575 316.895 336.465 317.195 336.365C317.475 336.405 317.705 336.355 317.865 336.095H317.875L318.175 335.945C319.905 335.345 321.635 334.755 323.365 334.155C323.495 334.085 323.635 334.025 323.765 333.955C324.245 333.805 324.715 333.655 325.195 333.515C325.345 333.445 325.485 333.375 325.635 333.305C327.165 332.765 328.705 332.225 330.235 331.685C330.515 331.735 330.765 331.705 330.915 331.425C333.205 330.595 335.485 329.765 337.775 328.945C338.125 328.955 338.475 328.985 338.695 328.625C339.255 328.265 339.885 328.095 340.535 327.975C340.645 327.915 340.765 327.865 340.875 327.805C341.675 327.535 342.485 327.275 343.285 327.005L343.675 326.805C345.435 326.185 347.185 325.555 348.945 324.935C349.105 325.125 349.205 325.065 349.255 324.845C350.785 324.295 352.305 323.735 353.835 323.185C358.285 321.575 362.735 319.955 367.185 318.345C373.995 315.885 380.795 313.415 387.605 310.975C393.345 308.925 399.105 306.925 404.865 304.905C405.005 304.835 405.135 304.775 405.275 304.705C405.755 304.555 406.225 304.405 406.705 304.255C406.845 304.185 406.995 304.125 407.135 304.055C408.415 304.055 409.295 302.925 410.555 302.835C410.705 302.985 410.795 302.935 410.855 302.755C411.065 302.665 411.285 302.585 411.495 302.495C411.915 302.935 412.045 302.625 412.135 302.245C412.225 302.195 412.325 302.175 412.425 302.165C412.535 302.105 412.635 302.055 412.745 301.995C413.315 301.765 413.945 301.695 414.425 301.255C414.675 301.225 414.915 301.205 415.165 301.175C415.295 301.115 415.415 301.065 415.545 301.005C416.655 300.655 417.815 300.645 418.965 300.615C419.265 301.025 419.465 300.855 419.625 300.495C420.655 300.365 421.695 300.235 422.725 300.105C422.935 300.365 423.125 300.335 423.295 300.055C429.775 299.315 436.265 298.585 442.745 297.845C448.135 297.225 453.535 296.695 458.905 295.945C465.155 295.075 471.465 294.855 477.695 293.775C483.105 292.845 488.635 292.785 494.065 291.895C496.855 291.435 499.695 291.295 502.505 290.985C505.145 290.695 507.775 290.355 510.415 290.035C510.695 290.395 510.905 290.275 511.075 289.935C511.685 289.865 512.295 289.805 512.905 289.735C513.185 290.095 513.385 289.965 513.565 289.635C516.095 289.355 518.635 289.065 521.165 288.805C521.695 288.755 522.215 288.725 522.455 288.175C523.055 286.835 522.295 283.445 521.225 282.495C519.345 280.825 517.505 279.115 515.635 277.455C514.945 276.845 514.085 276.405 513.505 275.715C511.785 273.705 509.655 272.145 507.805 270.285C507.555 270.035 507.245 269.685 507.045 270.345C507.045 270.495 507.045 270.645 507.045 270.795C507.055 272.245 507.075 273.695 507.075 275.145C507.075 277.558 505.928 278.978 503.635 279.405C503.485 279.435 503.325 279.425 503.175 279.435C498.815 279.705 494.515 280.445 490.185 280.935C482.565 281.795 474.925 282.495 467.345 283.725C462.685 284.475 457.915 284.465 453.255 285.345C449.755 286.015 446.165 285.875 442.655 286.455C436.595 287.455 430.455 287.715 424.395 288.735C420.745 289.355 416.995 289.295 413.325 289.925C412.365 290.085 411.405 290.505 410.515 290.515C407.025 290.555 403.595 291.125 400.145 291.515C397.575 291.805 395.025 292.385 392.475 292.705C389.515 293.065 386.495 292.945 383.515 293.405C380.255 293.915 376.965 294.295 373.675 294.635C370.655 294.955 367.655 295.475 364.645 295.805C361.845 296.115 359.025 296.385 356.215 296.655C350.125 297.235 344.075 298.175 337.985 298.815C331.615 299.475 325.275 300.405 318.915 301.125C312.685 301.825 306.475 302.815 300.195 303.105C298.985 303.155 297.785 303.445 296.575 303.645C294.195 304.055 291.795 304.455 289.405 304.765C287.095 305.075 284.745 305.355 282.405 305.515C280.195 305.675 278.005 306.165 275.845 306.295C272.515 306.495 269.245 307.075 265.935 307.335C261.585 307.665 257.275 308.605 252.925 308.935C246.615 309.415 240.375 310.525 234.075 311.085C229.735 311.465 225.435 312.365 221.085 312.655C216.045 312.995 211.105 314.005 206.065 314.365C201.475 314.695 196.935 315.755 192.355 316.075C185.965 316.515 179.685 317.735 173.315 318.255C169.885 318.535 166.495 319.305 163.065 319.525C157.495 319.865 152.025 321.025 146.465 321.375C142.605 321.615 138.815 322.555 134.935 322.685C136.255 317.655 137.875 312.695 138.925 307.585C139.975 302.475 140.745 297.335 141.125 292.155C141.695 284.365 140.225 276.735 138.835 269.125C138.175 265.525 137.495 261.935 137.115 258.295C141.255 257.485 145.485 257.455 149.645 256.775C153.155 256.195 156.705 255.805 160.255 255.595C163.035 255.425 165.735 254.645 168.525 254.615C168.615 254.765 168.695 255.025 168.805 255.045C169.135 255.095 169.115 254.785 169.155 254.565C169.665 254.475 170.165 254.355 170.675 254.305C173.285 254.065 175.945 254.085 178.505 253.575C181.535 252.965 184.605 252.885 187.645 252.455C190.585 252.045 193.555 251.755 196.505 251.415C201.695 250.815 206.885 250.215 212.085 249.615C212.135 249.895 211.995 250.355 212.375 250.375C212.965 250.405 213.215 249.905 213.365 249.395C213.555 249.375 213.745 249.365 213.945 249.345C213.985 249.545 214.025 249.785 214.285 249.765C214.535 249.755 214.555 249.505 214.595 249.305C218.535 248.885 222.465 248.455 226.405 248.035C226.685 248.155 227.005 248.415 227.055 247.825C230.155 247.475 233.255 247.135 236.355 246.785C236.615 247.185 236.825 247.065 237.015 246.725L239.155 246.475C239.405 246.865 239.625 246.765 239.815 246.425C241.775 246.175 243.725 245.915 245.685 245.665C245.905 245.905 246.115 245.905 246.315 245.635C246.795 245.585 247.275 245.535 247.755 245.475C247.895 245.445 248.035 245.405 248.185 245.375C248.625 245.345 249.075 245.315 249.515 245.275C249.625 245.185 249.725 245.095 249.835 244.995C253.195 245.975 256.525 247.055 259.855 248.115C262.375 248.915 264.875 250.305 267.705 249.875C267.765 249.925 267.815 249.965 267.875 250.015L267.735 249.855C268.125 248.855 269.055 248.505 269.905 248.065C270.235 247.955 270.975 248.595 270.825 247.575C271.895 246.825 272.905 245.965 274.175 245.535C275.165 245.195 276.595 245.545 276.775 243.905L276.825 243.885Z" fill="#D1CCC8"/>
<path d="M221.755 408.925C222.945 409.205 223.895 408.475 224.915 408.125C230.265 406.315 235.655 404.555 240.905 402.525C247.535 399.955 254.295 397.775 260.885 395.115C265.915 393.085 271.135 391.515 276.245 389.665C303.175 379.915 330.095 370.125 357.035 360.365C368.325 356.275 379.645 352.245 390.945 348.165C396.645 346.105 402.405 344.185 408.095 342.125C412.955 340.365 417.805 338.505 422.655 336.685C430.195 333.855 437.825 331.275 445.345 328.395C452.255 325.755 459.275 323.385 466.235 320.885C473.665 318.205 481.055 315.405 488.535 312.845C494.645 310.755 500.635 308.345 506.805 306.405C508.745 305.795 510.665 304.885 512.575 304.085C516.085 302.615 519.725 301.475 523.345 300.295C524.545 299.905 524.955 299.305 524.895 298.055C524.865 297.365 524.265 296.365 525.415 295.905C528.705 297.695 531.985 299.505 535.285 301.265C536.555 301.935 537.885 302.505 539.205 303.065C539.915 303.375 540.215 303.815 540.175 304.615C540.115 305.955 540.075 307.315 540.185 308.655C540.285 309.805 539.685 310.135 538.755 310.465C525.365 315.345 511.985 320.255 498.605 325.155C488.395 328.895 478.175 332.625 467.965 336.365C458.465 339.845 448.975 343.365 439.465 346.815C437.275 347.605 434.865 348.005 432.845 349.035C429.825 350.575 426.585 351.435 423.475 352.595C405.705 359.245 387.865 365.705 370.045 372.225C350.865 379.255 331.695 386.285 312.515 393.305C299.955 397.895 287.385 402.445 274.835 407.045C257.505 413.395 240.185 419.775 222.865 426.165C222.095 426.455 221.525 426.325 220.845 425.935C200.635 414.305 180.415 402.705 160.195 391.085C147.395 383.725 134.595 376.365 121.785 369.015C112.425 363.645 103.055 358.305 93.7053 352.935C66.8353 337.495 39.9753 322.035 13.0954 306.595C12.2054 306.085 11.5554 305.415 11.0054 304.585C6.68535 298.145 3.71535 291.145 1.88535 283.615C0.785352 279.095 0.485352 274.495 0.985352 269.965C1.97535 261.065 5.65535 253.235 11.5554 246.475C11.9754 245.995 12.5154 245.895 13.0454 245.715C23.7554 242.005 34.4554 238.315 45.1654 234.615C50.6654 240.505 55.5954 246.885 60.8754 252.965C65.2054 257.955 69.4154 263.055 73.6853 268.105C77.8153 272.995 81.9553 277.885 86.0753 282.775C90.2953 287.785 94.5553 292.775 98.7153 297.845C100.245 299.705 102.095 301.315 103.185 303.525C102.765 303.315 102.345 303.125 101.935 302.895C94.9454 298.955 87.9553 295.005 80.9653 291.065C71.4953 285.725 62.0254 280.385 52.5454 275.045C43.6154 270.015 34.6654 265.005 25.7454 259.965C24.9754 259.525 24.7754 259.775 24.5854 260.475C23.8654 263.015 23.2754 265.595 23.0854 268.225C22.5854 275.105 23.1054 281.885 25.2354 288.495C26.1054 291.195 27.0054 293.895 27.9054 296.585C28.7554 299.115 30.8754 300.355 33.0054 301.635C36.7954 303.905 40.7354 305.925 44.4754 308.315C48.4954 310.885 52.8153 313.015 57.0154 315.305C57.9654 315.825 58.6654 316.635 59.6454 317.145C62.4753 318.595 65.7153 319.435 67.7153 322.215C67.8253 322.365 68.2054 322.385 68.4454 322.355C69.2253 322.265 69.8653 322.585 70.4854 322.975C73.2154 324.735 76.1153 326.215 78.8953 327.905C80.8754 329.105 82.9454 330.255 85.0053 331.365C88.9454 333.485 92.7953 335.775 96.6453 338.055C99.3953 339.675 102.145 341.425 105.125 342.665C105.855 342.975 105.915 343.955 106.795 344.175C109.085 344.765 111.095 346.035 113.135 347.145C116.175 348.805 119.035 350.795 122.035 352.545C124.835 354.175 127.725 355.645 130.545 357.245C132.175 358.175 133.695 359.315 135.365 360.165C137.365 361.185 139.365 362.185 141.295 363.345C145.035 365.595 148.725 367.965 152.605 369.955C158.125 372.785 163.405 376.035 168.785 379.085C175.905 383.125 183.025 387.175 190.105 391.285C193.735 393.395 197.365 395.555 201.085 397.545C207.325 400.885 213.345 404.615 219.435 408.225C220.175 408.665 220.895 408.975 221.755 408.945V408.925Z" fill="#F1BD69"/>
<path d="M373.285 230.965C367.785 231.595 362.285 232.215 356.785 232.845C356.255 232.315 355.805 232.375 355.465 233.055C351.255 233.565 347.005 233.705 342.825 234.505C342.595 234.525 342.365 234.545 342.135 234.575C341.515 234.615 340.885 234.655 340.265 234.695C340.225 234.615 340.195 234.545 340.155 234.465C340.125 234.545 340.085 234.615 340.055 234.695C336.535 235.165 333.035 235.705 329.485 235.975C326.615 236.195 323.745 236.515 320.925 237.035C319.355 237.325 317.785 237.215 316.215 237.455C311.555 238.165 306.855 238.635 302.165 239.175C299.315 239.505 296.495 240.025 293.605 240.025C292.695 240.025 291.815 240.465 290.885 240.375C290.535 240.285 290.165 240.125 289.925 240.565C287.415 240.495 285.005 241.325 282.515 241.455C282.145 241.365 281.785 241.275 281.415 241.185C283.955 239.125 286.885 237.655 289.615 235.895C292.295 234.175 295.015 232.485 297.805 230.945C303.535 227.785 308.835 223.905 314.625 220.825C316.385 219.885 317.875 218.455 319.675 217.485C323.965 215.175 328.165 212.665 332.285 210.085C339.075 205.825 345.945 201.695 352.785 197.505C364.385 190.395 376.075 183.425 387.705 176.355C398.185 169.985 408.635 163.555 419.115 157.175C428.075 151.715 437.045 146.285 446.005 140.835C446.405 140.595 446.785 140.325 447.275 140.305C452.225 145.265 457.575 149.785 462.745 154.505C471.035 162.085 479.375 169.605 487.695 177.145C496.505 185.125 505.305 193.115 514.115 201.105C516.475 203.245 518.815 205.435 521.235 207.505C522.265 208.395 522.785 209.335 522.615 210.695C522.525 211.405 522.585 212.145 522.605 212.865C522.615 213.405 522.465 213.725 521.845 213.795C518.295 214.205 514.755 214.655 511.215 215.075C509.945 215.225 508.675 215.325 507.405 215.445C504.955 215.735 502.475 215.895 500.055 216.325C496.605 216.935 493.105 217.025 489.645 217.495C483.735 218.295 477.805 219.045 471.875 219.615C467.025 220.075 462.195 220.625 457.375 221.275C451.295 222.095 445.175 222.485 439.115 223.435C434.495 224.165 429.795 224.385 425.155 224.995C419.135 225.785 413.055 226.135 407.055 227.175C405.595 227.425 404.065 227.265 402.595 227.615C402.365 227.615 402.145 227.635 401.915 227.635C398.295 228.025 394.685 228.415 391.065 228.805C390.865 228.755 390.775 228.875 390.725 229.045C390.635 229.075 390.545 229.105 390.455 229.115C390.235 229.115 390.015 229.125 389.795 229.135C386.545 229.325 383.335 229.805 380.115 230.225C378.085 230.495 376.025 230.535 373.975 230.685C373.705 230.635 373.435 230.595 373.345 230.955L373.285 230.965Z" fill="#5F9595"/>
<path d="M103.195 303.515C102.105 301.305 100.255 299.695 98.7253 297.835C94.5653 292.775 90.3053 287.785 86.0853 282.765C81.9553 277.865 77.8253 272.985 73.6953 268.095C69.4353 263.045 65.2253 257.945 60.8853 252.955C55.6053 246.875 50.6753 240.495 45.1753 234.605C42.0353 230.825 39.0853 226.875 35.7153 223.315C28.6053 215.805 23.7553 207.015 20.5453 197.285C19.2053 193.215 18.4553 188.975 17.6853 184.755C16.8753 180.275 16.9953 175.755 16.9453 171.235C16.9453 170.995 16.9553 170.765 16.9653 170.525C16.9753 170.215 16.9853 169.895 16.9953 169.575C17.4253 169.595 17.6253 169.925 17.7753 170.245C18.7553 172.425 20.5853 173.295 22.7953 173.865C25.3353 174.515 27.7953 175.445 30.2853 176.255C30.2553 180.005 30.8253 183.725 31.5853 187.345C32.6253 192.285 33.8753 197.195 35.6153 201.995C36.9953 205.795 38.3153 209.405 41.1653 212.405C43.9753 215.365 46.4653 218.615 49.1053 221.725C57.9453 232.145 66.8053 242.565 75.6453 252.985C85.8553 265.025 96.0653 277.075 106.275 289.125C114.145 298.405 121.985 307.705 129.885 316.955C131.545 318.905 133.085 320.955 135.005 322.685C138.885 322.555 142.675 321.615 146.535 321.375C152.095 321.025 157.565 319.865 163.135 319.525C166.565 319.315 169.955 318.535 173.385 318.255C179.755 317.735 186.045 316.515 192.425 316.075C197.015 315.765 201.555 314.695 206.135 314.365C211.175 314.005 216.115 312.995 221.155 312.655C225.495 312.365 229.805 311.465 234.145 311.085C240.445 310.525 246.685 309.415 252.995 308.935C257.345 308.605 261.655 307.665 266.005 307.335C269.315 307.085 272.585 306.495 275.915 306.295C278.075 306.165 280.265 305.675 282.475 305.515C284.815 305.345 287.155 305.065 289.475 304.765C291.855 304.445 294.255 304.055 296.645 303.645C297.845 303.435 299.045 303.155 300.265 303.105C306.545 302.825 312.755 301.835 318.985 301.125C325.345 300.405 331.685 299.475 338.055 298.815C344.145 298.185 350.195 297.245 356.285 296.655C359.095 296.385 361.915 296.115 364.715 295.805C367.725 295.475 370.725 294.945 373.745 294.635C377.035 294.285 380.315 293.915 383.585 293.405C386.565 292.935 389.595 293.065 392.545 292.705C395.095 292.395 397.645 291.815 400.215 291.515C403.665 291.125 407.095 290.555 410.585 290.515C411.475 290.505 412.445 290.085 413.395 289.925C417.065 289.295 420.805 289.355 424.465 288.735C430.525 287.715 436.665 287.455 442.725 286.455C446.235 285.875 449.825 286.015 453.325 285.345C457.985 284.465 462.755 284.475 467.415 283.725C474.995 282.505 482.635 281.795 490.255 280.935C494.585 280.445 498.895 279.705 503.245 279.435C503.395 279.435 503.555 279.435 503.705 279.405C505.999 278.985 507.145 277.565 507.145 275.145C507.145 273.695 507.125 272.245 507.115 270.795C507.275 270.645 507.275 270.495 507.115 270.345C507.315 269.685 507.625 270.035 507.875 270.285C509.735 272.135 511.855 273.705 513.575 275.715C514.165 276.395 515.025 276.845 515.705 277.455C517.585 279.125 519.425 280.825 521.295 282.495C522.355 283.445 523.125 286.825 522.525 288.175C522.275 288.725 521.765 288.755 521.235 288.805C518.695 289.065 516.165 289.355 513.635 289.635C513.395 289.515 513.175 289.575 512.975 289.735C512.365 289.805 511.755 289.865 511.145 289.935C510.905 289.825 510.685 289.885 510.485 290.035C507.855 290.355 505.215 290.685 502.575 290.985C499.765 291.295 496.925 291.435 494.135 291.895C488.705 292.785 483.175 292.845 477.765 293.775C471.535 294.845 465.225 295.075 458.975 295.945C453.605 296.695 448.205 297.225 442.815 297.845C436.335 298.585 429.845 299.325 423.365 300.055C423.285 299.955 423.215 299.795 423.125 299.775C422.895 299.725 422.825 299.915 422.795 300.105C421.765 300.235 420.725 300.365 419.695 300.495C419.445 300.365 419.225 300.415 419.035 300.615C417.885 300.645 416.735 300.655 415.615 301.005C415.485 301.065 415.365 301.115 415.235 301.175C414.985 301.205 414.745 301.225 414.495 301.255C413.035 301.095 411.615 301.375 410.175 301.545C405.255 302.105 400.325 302.625 395.405 303.185C389.565 303.855 383.725 304.575 377.885 305.255C372.755 305.855 367.635 306.465 362.505 307.045C356.655 307.715 350.805 308.345 344.965 309.015C340.145 309.565 335.325 310.125 330.505 310.685C324.605 311.365 318.715 312.065 312.815 312.745C307.955 313.305 303.085 313.835 298.225 314.395C292.275 315.085 286.335 315.765 280.395 316.485C277.015 316.895 273.625 317.145 270.255 317.545C267.245 317.905 264.225 318.305 261.205 318.665C257.165 319.145 253.125 319.605 249.085 320.095C244.585 320.635 240.105 321.245 235.605 321.755C229.505 322.435 223.385 323.015 217.285 323.705C210.515 324.465 203.755 325.325 196.995 326.105C190.385 326.875 183.765 327.595 177.155 328.345C170.945 329.055 164.735 329.725 158.545 330.535C156.685 330.785 154.735 330.645 152.965 331.475C152.245 331.475 151.515 331.425 150.795 331.495C144.025 332.085 137.335 333.395 130.535 333.835C129.665 333.895 129.125 333.795 128.545 333.095C125.525 329.445 122.435 325.835 119.375 322.215C116.015 318.245 112.705 314.245 109.285 310.325C107.285 308.035 105.555 305.505 103.235 303.495L103.195 303.515Z" fill="#5F9595"/>
<path d="M271.305 197.3C277.005 193.84 282.715 190.38 288.415 186.92C301.955 178.7 315.495 170.49 329.025 162.26C341.055 154.95 353.065 147.61 365.095 140.3C376.635 133.28 388.195 126.29 399.735 119.28C406.795 114.99 413.835 110.69 420.885 106.39C420.995 106.31 421.115 106.22 421.225 106.14C425.525 103.34 429.975 100.78 434.365 98.13C439.385 95.1 444.315 91.9 449.425 89.02C449.825 88.79 450.285 88.67 450.715 88.5C449.785 92.99 449.145 97.52 448.565 102.06C448.025 106.36 447.675 110.68 448.015 115C448.215 117.53 447.885 120.19 449.185 122.57C449.315 123.41 448.855 123.86 448.175 124.27C445.925 125.63 443.705 127.04 441.475 128.42C434.695 132.64 427.915 136.87 421.115 141.06C416.075 144.17 410.985 147.22 405.945 150.33C403.905 151.59 401.815 152.79 399.895 154.26C398.085 155.64 395.835 156.22 393.995 157.7C390.715 160.33 386.975 162.35 383.285 164.39C381.215 165.53 379.415 167.09 377.365 168.21C374.545 169.76 371.975 171.69 369.105 173.18C365.895 174.84 363.025 177.15 359.955 179.09C356.825 181.07 353.555 182.83 350.475 184.89C344.445 188.94 338.085 192.47 332.045 196.51C328.155 199.11 324.035 201.31 320.125 203.89C314.715 207.45 309.185 210.84 303.655 214.22C293.305 220.53 283.075 227.01 272.755 233.36C270.525 234.73 268.425 236.36 265.955 237.32C266.035 234.22 265.455 231.17 265.225 228.1C264.785 222.26 265.045 216.48 265.775 210.7C266.135 207.91 266.665 205.13 267.255 202.38C267.605 200.74 267.805 199.01 268.795 197.56C269.295 197.66 269.795 197.75 270.295 197.85C270.735 197.85 271.155 197.83 271.285 197.3H271.305Z" fill="#D1CCC8"/>
<path d="M265.955 237.4C268.425 236.43 270.525 234.81 272.755 233.44C283.075 227.08 293.305 220.61 303.655 214.3C309.185 210.93 314.725 207.53 320.125 203.97C324.035 201.39 328.155 199.19 332.045 196.59C338.085 192.55 344.445 189.02 350.475 184.97C353.545 182.91 356.825 181.15 359.955 179.17C363.025 177.23 365.895 174.92 369.105 173.26C371.975 171.77 374.545 169.83 377.365 168.29C379.415 167.17 381.215 165.61 383.285 164.47C386.975 162.43 390.715 160.41 393.995 157.78C395.835 156.3 398.085 155.72 399.895 154.34C401.815 152.88 403.895 151.67 405.945 150.41C410.985 147.3 416.075 144.26 421.115 141.14C427.915 136.95 434.685 132.71 441.475 128.5C443.705 127.11 445.925 125.7 448.175 124.35C448.855 123.94 449.315 123.49 449.185 122.65C452.915 123.92 456.655 125.19 460.385 126.47C460.325 127.06 459.915 127.36 459.465 127.63C454.875 130.39 450.275 133.15 445.685 135.92C439.735 139.51 433.665 142.93 427.875 146.77C422.165 150.57 416.165 153.88 410.345 157.48C403.315 161.82 396.295 166.17 389.235 170.47C383.895 173.72 378.495 176.88 373.155 180.12C368.035 183.23 362.965 186.41 357.845 189.52C352.205 192.93 346.525 196.28 340.895 199.69C336.965 202.07 333.115 204.61 329.135 206.9C325.835 208.8 322.575 210.79 319.315 212.75C314.985 215.35 310.715 218.09 306.405 220.74C301.745 223.61 297.015 226.38 292.345 229.24C287.145 232.41 282.025 235.71 276.775 238.8C273.705 240.61 270.695 242.51 267.655 244.36C266.845 244.85 266.105 244.92 265.165 244.62C256.295 241.86 247.345 239.34 238.545 236.39C229.225 233.26 219.775 230.59 210.435 227.51C204.215 225.46 197.895 223.71 191.665 221.71C184.045 219.26 176.425 216.8 168.725 214.62C161.995 212.71 155.315 210.66 148.695 208.43C145.275 207.28 141.755 206.43 138.395 205.19C135.005 203.94 131.545 202.82 128.095 201.93C122.455 200.47 117.125 198.18 111.545 196.6C105.935 195.01 100.405 193.18 94.8353 191.44C89.2753 189.7 83.7253 187.93 78.1653 186.19C73.0953 184.6 68.0153 183.04 62.9453 181.45C56.4053 179.4 49.8653 177.33 43.3153 175.3C37.0653 173.36 30.7953 171.47 24.5353 169.55C23.1053 169.11 21.6953 168.59 20.2753 168.13C19.8053 167.98 19.4753 167.8 19.2653 167.3C16.2953 160.38 14.4453 153.2 14.6253 145.64C14.8153 137.21 17.3353 129.48 22.1253 122.51C22.9153 121.36 23.7553 120.76 25.2153 121.5C26.4453 122.13 27.8953 122.25 29.1253 122.94C28.4653 124.46 27.7553 125.96 27.1653 127.51C22.9253 138.74 22.8553 149.81 28.6453 160.59C29.1953 161.61 29.8653 162.64 31.2153 163.06C41.2953 166.19 51.3653 169.37 61.4253 172.57C71.0753 175.63 80.7253 178.73 90.3753 181.8C94.2353 183.03 98.1153 184.19 101.955 185.47C109.785 188.07 117.715 190.38 125.485 193.2C130.665 195.08 136.075 196.27 141.265 198.17C145.865 199.85 150.615 201.12 155.275 202.65C158.785 203.81 162.375 204.7 165.895 205.81C168.665 206.68 171.405 207.7 174.145 208.66C180.355 210.83 186.755 212.47 193.045 214.42C199.935 216.55 206.795 218.79 213.665 220.99C218.785 222.63 223.955 224.11 229.005 225.94C234.195 227.83 239.485 229.36 244.755 230.95C248.535 232.09 252.325 233.25 256.055 234.52C257.865 235.14 259.745 235.69 261.555 236.29C262.955 236.75 264.365 237.63 265.965 237.43L265.955 237.4Z" fill="#8882AB"/>
<path d="M525.105 261.765C519.705 263.685 514.305 265.615 508.905 267.515C507.115 268.145 507.105 268.105 507.105 266.205C507.105 255.655 507.105 245.105 507.115 234.555C507.115 233.995 506.955 233.415 507.295 232.895C517.715 238.315 528.125 243.755 538.565 249.125C539.725 249.715 540.325 250.335 540.185 251.705C540.025 253.185 540.565 254.985 539.905 256.105C539.225 257.245 537.275 257.295 535.885 257.815C532.295 259.145 528.705 260.445 525.105 261.765Z" fill="#F1BD69"/>
<path d="M9.82513 144.055C9.95513 144.625 9.96513 145.195 9.82513 145.775C9.18513 145.195 8.63513 144.625 9.82513 144.055Z" fill="#D1CCC8"/>
<path d="M16.9646 170.535C16.9646 170.775 16.9546 171.005 16.9446 171.245C16.7546 171.005 16.7446 170.765 16.9646 170.535Z" fill="#ADACAB"/>
<path d="M265.955 237.49C264.345 237.69 262.935 236.81 261.545 236.35C259.725 235.75 257.855 235.2 256.045 234.58C252.315 233.3 248.525 232.14 244.745 231.01C239.475 229.42 234.185 227.89 228.995 226C223.945 224.16 218.775 222.68 213.655 221.05C206.785 218.85 199.925 216.62 193.035 214.48C186.745 212.53 180.345 210.89 174.135 208.72C171.395 207.76 168.645 206.75 165.885 205.87C162.365 204.76 158.775 203.87 155.265 202.71C150.605 201.18 145.865 199.91 141.255 198.23C136.055 196.34 130.655 195.14 125.475 193.26C117.705 190.44 109.775 188.13 101.945 185.53C98.1051 184.25 94.2251 183.09 90.3651 181.86C80.7151 178.79 71.0651 175.69 61.4151 172.63C51.3551 169.44 41.2851 166.25 31.2051 163.12C29.8551 162.7 29.1851 161.67 28.6351 160.65C22.8451 149.88 22.9151 138.81 27.1551 127.57C27.7351 126.02 28.4551 124.53 29.1151 123C31.7351 123.21 34.0951 124.36 36.5451 125.11C47.4751 128.46 58.3651 131.94 69.2851 135.34C79.8551 138.63 90.4451 141.86 101.015 145.15C108.995 147.63 116.955 150.17 124.935 152.67C134.145 155.55 143.355 158.41 152.565 161.29C162.215 164.31 171.865 167.34 181.515 170.35C197.815 175.43 214.115 180.49 230.415 185.58C238.215 188.02 245.995 190.5 253.785 192.96C258.795 194.54 263.805 196.12 268.815 197.71C267.825 199.16 267.625 200.89 267.275 202.53C266.685 205.28 266.145 208.06 265.795 210.85C265.055 216.63 264.805 222.41 265.245 228.25C265.475 231.32 266.055 234.37 265.975 237.47L265.955 237.49Z" fill="#ADACAB"/>
<path d="M134.995 322.705C133.085 320.985 131.535 318.925 129.875 316.975C121.985 307.715 114.135 298.425 106.265 289.145C96.0546 277.095 85.8446 265.045 75.6346 253.005C66.7946 242.585 57.9446 232.165 49.0946 221.745C46.4546 218.635 43.9646 215.385 41.1546 212.425C38.3046 209.415 36.9846 205.815 35.6046 202.015C33.8646 197.215 32.6146 192.305 31.5746 187.365C30.8146 183.745 30.2446 180.025 30.2746 176.275C34.4846 177.595 38.6646 179.035 42.8746 180.335C48.1846 181.975 53.4946 183.625 58.8246 185.205C62.3846 186.255 65.9146 187.425 69.4446 188.575C69.9646 188.745 70.4146 189.115 70.9046 189.395C70.8746 190.015 71.2346 190.455 71.6046 190.885C73.0546 192.555 74.6146 194.135 75.9746 195.875C80.9646 202.295 86.4346 208.305 91.6346 214.545C97.1046 221.115 102.675 227.585 108.165 234.135C111.445 238.045 114.605 242.065 117.835 245.995C121.165 250.045 124.835 253.835 128.175 257.885C128.925 258.795 129.675 259.125 130.835 258.965C132.935 258.675 135.055 258.525 137.155 258.315C137.525 261.955 138.215 265.545 138.875 269.145C140.265 276.765 141.735 284.385 141.165 292.175C140.785 297.355 140.015 302.505 138.965 307.605C137.915 312.715 136.295 317.665 134.975 322.705H134.995Z" fill="#ADACAB"/>
<path d="M137.175 258.305C135.065 258.515 132.945 258.665 130.855 258.955C129.695 259.115 128.945 258.785 128.195 257.875C124.845 253.825 121.175 250.035 117.855 245.985C114.615 242.045 111.465 238.035 108.185 234.125C102.695 227.575 97.1146 221.105 91.6546 214.535C86.4546 208.295 80.9846 202.285 75.9946 195.865C74.6446 194.125 73.0846 192.535 71.6246 190.875C71.2546 190.455 70.8946 190.005 70.9246 189.385C72.5046 189.215 73.9046 189.995 75.3246 190.415C85.9546 193.605 96.5546 196.925 107.165 200.225C112.985 202.035 118.775 203.945 124.615 205.685C130.435 207.415 136.185 209.345 141.995 211.085C145.805 212.225 149.605 213.455 153.405 214.645C159.885 216.675 166.415 218.555 172.825 220.775C175.875 221.835 178.965 222.875 182.035 223.775C203.155 229.965 224.045 236.855 245.075 243.315C246.695 243.815 248.405 244.085 249.885 244.975C249.785 245.075 249.675 245.165 249.575 245.265C249.135 245.295 248.685 245.325 248.245 245.365C248.105 245.395 247.965 245.435 247.815 245.465C247.335 245.515 246.855 245.565 246.375 245.625C246.165 245.635 245.955 245.645 245.745 245.655C243.785 245.905 241.835 246.165 239.875 246.415C239.645 246.265 239.425 246.295 239.215 246.465C238.505 246.545 237.795 246.635 237.075 246.715C236.835 246.555 236.615 246.595 236.415 246.775C233.315 247.125 230.215 247.465 227.115 247.815C226.855 247.755 226.605 247.725 226.465 248.025C222.525 248.445 218.595 248.875 214.655 249.295C214.435 249.305 214.225 249.315 214.005 249.325C213.815 249.345 213.625 249.355 213.425 249.375C212.965 249.275 212.555 249.395 212.145 249.585C206.955 250.185 201.765 250.785 196.565 251.385C193.605 251.725 190.645 252.015 187.705 252.425C184.665 252.855 181.595 252.935 178.565 253.545C176.015 254.055 173.355 254.045 170.735 254.275C170.225 254.325 169.725 254.445 169.215 254.535C169.005 254.555 168.795 254.575 168.585 254.585C165.795 254.615 163.105 255.395 160.315 255.565C156.765 255.785 153.215 256.165 149.705 256.745C145.545 257.435 141.315 257.465 137.175 258.265V258.305Z" fill="#5F9595"/>
<path d="M276.825 243.885C276.645 245.525 275.215 245.175 274.225 245.515C274.915 244.695 275.855 244.265 276.825 243.885Z" fill="#ADACAB"/>
<path d="M281.395 241.185C281.765 241.275 282.125 241.365 282.495 241.455C282.085 242.595 281.425 242.185 280.765 241.735C280.975 241.555 281.185 241.375 281.395 241.185Z" fill="#ADACAB"/>
<path d="M271.304 196.805C271.164 197.345 270.744 197.365 270.314 197.355C270.504 196.915 270.794 196.655 271.304 196.805Z" fill="#ADACAB"/>
<path d="M278.754 242.725C278.684 243.135 278.494 243.395 278.024 243.315C278.094 242.905 278.364 242.755 278.754 242.725Z" fill="#ADACAB"/>
<path d="M270.875 247.555C271.025 248.575 270.295 247.935 269.955 248.045C270.155 247.695 270.535 247.655 270.875 247.555Z" fill="#ADACAB"/>
<path d="M278.055 243.305C277.925 243.655 277.645 243.665 277.345 243.645C277.515 243.395 277.745 243.255 278.055 243.305Z" fill="#ADACAB"/>
<path d="M249.565 245.265C249.665 245.165 249.775 245.075 249.875 244.975V244.985C249.765 245.075 249.665 245.165 249.555 245.265H249.565Z" fill="#ADACAB"/>
<path d="M421.225 105.645C421.115 105.725 420.995 105.815 420.885 105.895C420.925 105.705 421.025 105.605 421.225 105.645Z" fill="#ADACAB"/>
<path d="M103.195 303.515C105.515 305.525 107.245 308.055 109.245 310.345C112.665 314.255 115.975 318.265 119.335 322.235C122.395 325.855 125.485 329.465 128.505 333.115C129.085 333.815 129.625 333.915 130.495 333.855C137.285 333.415 143.975 332.105 150.755 331.515C151.475 331.455 152.195 331.505 152.925 331.495C153.445 331.835 153.945 332.195 154.485 332.505C164.585 338.195 174.695 343.865 184.785 349.555C197.125 356.515 209.465 363.485 221.795 370.455C221.775 383.275 221.765 396.105 221.745 408.925C220.885 408.955 220.165 408.645 219.425 408.205C213.335 404.605 207.315 400.865 201.075 397.525C197.355 395.535 193.725 393.375 190.095 391.265C183.015 387.155 175.895 383.105 168.775 379.065C163.385 376.015 158.115 372.765 152.595 369.935C148.715 367.945 145.025 365.575 141.285 363.325C139.355 362.165 137.355 361.165 135.355 360.145C133.685 359.295 132.175 358.145 130.535 357.225C127.715 355.625 124.825 354.155 122.025 352.525C119.025 350.775 116.165 348.785 113.125 347.125C111.085 346.015 109.075 344.745 106.785 344.155C105.905 343.925 105.845 342.945 105.115 342.645C102.135 341.405 99.3854 339.655 96.6354 338.035C92.7854 335.765 88.9354 333.465 84.9954 331.345C82.9354 330.235 80.8554 329.085 78.8854 327.885C76.1054 326.195 73.2154 324.715 70.4754 322.955C69.8654 322.565 69.2154 322.245 68.4354 322.335C68.1954 322.365 67.8154 322.335 67.7054 322.195C65.7054 319.405 62.4654 318.575 59.6354 317.125C58.6454 316.615 57.9454 315.805 57.0054 315.285C52.8054 312.985 48.4954 310.865 44.4654 308.295C40.7254 305.905 36.7954 303.885 32.9954 301.615C30.8754 300.345 28.7554 299.095 27.8954 296.565C26.9854 293.875 26.0954 291.185 25.2254 288.475C23.0954 281.875 22.5754 275.085 23.0754 268.205C23.2654 265.575 23.8554 262.995 24.5754 260.455C24.7754 259.755 24.9654 259.505 25.7354 259.945C34.6554 264.995 43.6054 270.005 52.5354 275.025C62.0154 280.355 71.4854 285.705 80.9554 291.045C87.9454 294.985 94.9354 298.935 101.925 302.875C102.335 303.105 102.755 303.295 103.175 303.505L103.195 303.515Z" fill="#ADACAB"/>
<path d="M221.805 370.455C209.465 363.485 197.135 356.515 184.795 349.555C174.695 343.865 164.595 338.195 154.495 332.505C153.955 332.205 153.455 331.835 152.935 331.495C154.705 330.665 156.655 330.795 158.515 330.555C164.705 329.735 170.915 329.075 177.125 328.365C183.735 327.605 190.355 326.885 196.965 326.125C203.735 325.345 210.495 324.485 217.255 323.725C223.355 323.035 229.475 322.455 235.575 321.775C240.075 321.275 244.565 320.665 249.055 320.115C253.095 319.625 257.135 319.165 261.175 318.685C264.195 318.325 267.205 317.915 270.225 317.565C273.595 317.165 276.995 316.915 280.365 316.505C286.305 315.785 292.255 315.105 298.195 314.415C303.055 313.855 307.925 313.325 312.785 312.765C318.685 312.085 324.575 311.395 330.475 310.705C335.295 310.145 340.115 309.585 344.935 309.035C350.785 308.375 356.635 307.735 362.475 307.065C367.605 306.485 372.725 305.875 377.855 305.275C383.695 304.585 389.535 303.875 395.375 303.205C400.295 302.635 405.225 302.115 410.145 301.565C411.585 301.405 413.005 301.125 414.465 301.275C413.985 301.705 413.355 301.785 412.785 302.015C412.675 302.075 412.575 302.125 412.465 302.185C412.365 302.185 412.265 302.225 412.175 302.265C411.905 302.205 411.685 302.265 411.535 302.515C411.325 302.605 411.105 302.685 410.895 302.775C410.795 302.805 410.695 302.835 410.595 302.855C409.345 302.935 408.465 304.075 407.175 304.075C407.035 304.145 406.885 304.205 406.745 304.275C406.265 304.425 405.795 304.575 405.315 304.725C405.175 304.795 405.045 304.855 404.905 304.925C399.155 306.945 393.395 308.945 387.645 310.995C380.825 313.425 374.025 315.905 367.225 318.365C362.775 319.975 358.325 321.585 353.875 323.205C352.345 323.755 350.825 324.315 349.295 324.865C349.195 324.895 349.085 324.925 348.985 324.955C347.225 325.575 345.475 326.205 343.715 326.825C343.585 326.895 343.455 326.965 343.325 327.025C342.525 327.295 341.715 327.555 340.915 327.825C340.805 327.885 340.685 327.935 340.575 327.995C339.925 328.115 339.295 328.285 338.735 328.645C338.395 328.645 338.045 328.635 337.815 328.965C335.525 329.795 333.245 330.625 330.955 331.445C330.685 331.415 330.445 331.465 330.275 331.705C328.745 332.245 327.205 332.785 325.675 333.325C325.525 333.395 325.385 333.465 325.235 333.535C324.755 333.685 324.285 333.835 323.805 333.975C323.675 334.045 323.535 334.105 323.405 334.175C321.675 334.775 319.945 335.365 318.215 335.965C318.115 336.015 318.015 336.065 317.915 336.125H317.905C317.635 336.095 317.395 336.155 317.235 336.395C316.935 336.495 316.635 336.605 316.335 336.705C316.195 336.785 316.045 336.855 315.905 336.935C313.275 337.555 310.805 338.645 308.275 339.565C308.015 339.535 307.785 339.595 307.625 339.825C306.385 340.265 305.145 340.695 303.905 341.135C303.765 341.195 303.635 341.265 303.495 341.325C301.965 341.865 300.445 342.405 298.915 342.935C298.815 342.965 298.705 342.995 298.605 343.025C298.095 343.215 297.585 343.405 297.065 343.595C296.795 343.565 296.565 343.625 296.395 343.855C294.545 344.505 292.695 345.165 290.845 345.815C290.735 345.845 290.625 345.875 290.515 345.905C288.915 346.245 287.515 347.195 285.865 347.365C285.675 347.345 285.585 347.445 285.565 347.625C284.215 348.145 282.855 348.665 281.505 349.185C281.405 349.225 281.295 349.255 281.195 349.295C280.995 349.295 280.805 349.305 280.605 349.315C280.085 349.105 279.865 349.435 279.665 349.815H279.655C279.315 349.845 278.925 349.735 278.715 350.145C278.515 350.205 278.325 350.255 278.125 350.315C277.935 350.205 277.845 350.315 277.785 350.475C277.475 350.585 277.165 350.685 276.855 350.795C276.305 350.675 275.945 351.005 275.595 351.345C275.285 351.375 274.975 351.405 274.675 351.435C274.475 351.385 274.395 351.485 274.355 351.665C273.945 351.795 273.525 351.925 273.115 352.055C272.915 351.985 272.825 352.105 272.765 352.265C270.645 352.675 268.765 353.715 266.755 354.435C252.005 359.685 237.275 364.985 222.535 370.275C222.295 370.365 222.035 370.415 221.785 370.485L221.805 370.455Z" fill="#F1BD69"/>
<path d="M212.135 249.605C212.535 249.405 212.955 249.285 213.415 249.395C213.265 249.905 213.025 250.405 212.425 250.375C212.045 250.355 212.185 249.895 212.135 249.615V249.605Z" fill="#ADACAB"/>
<path d="M355.465 233.055C355.805 232.375 356.245 232.315 356.785 232.845C356.405 233.275 355.925 233.125 355.465 233.055Z" fill="#ADACAB"/>
<path d="M275.604 351.315C275.954 350.975 276.314 350.645 276.864 350.765C276.684 351.505 276.084 351.285 275.604 351.315Z" fill="#ADACAB"/>
<path d="M289.905 240.555C290.155 240.115 290.515 240.275 290.865 240.365C290.655 240.965 290.335 241.045 289.905 240.555Z" fill="#ADACAB"/>
<path d="M278.725 350.115C278.935 349.705 279.325 349.815 279.665 349.785C279.535 350.405 279.235 350.555 278.725 350.115Z" fill="#ADACAB"/>
<path d="M279.675 349.775C279.875 349.385 280.095 349.065 280.615 349.275C280.495 349.815 280.085 349.775 279.675 349.775Z" fill="#ADACAB"/>
<path d="M422.774 300.115C422.804 299.925 422.874 299.735 423.104 299.785C423.204 299.805 423.264 299.965 423.344 300.065C423.174 300.345 422.984 300.375 422.774 300.115Z" fill="#ADACAB"/>
<path d="M411.545 302.495C411.695 302.255 411.915 302.185 412.185 302.245C412.085 302.625 411.955 302.935 411.545 302.495Z" fill="#ADACAB"/>
<path d="M239.205 246.475C239.415 246.305 239.635 246.275 239.865 246.425C239.665 246.765 239.455 246.875 239.205 246.475Z" fill="#ADACAB"/>
<path d="M236.405 246.785C236.615 246.595 236.825 246.565 237.065 246.725C236.875 247.065 236.665 247.185 236.405 246.785Z" fill="#ADACAB"/>
<path d="M307.635 339.795C307.785 339.555 308.015 339.495 308.285 339.535C308.195 339.935 308.085 340.285 307.635 339.795Z" fill="#ADACAB"/>
<path d="M342.135 234.565C342.365 234.545 342.595 234.525 342.825 234.495C342.645 235.005 342.415 235.055 342.135 234.565Z" fill="#ADACAB"/>
<path d="M213.995 249.345C214.215 249.335 214.425 249.325 214.645 249.315C214.615 249.515 214.595 249.755 214.335 249.775C214.075 249.785 214.035 249.555 213.995 249.355V249.345Z" fill="#ADACAB"/>
<path d="M296.415 343.825C296.585 343.595 296.815 343.535 297.085 343.565C297.095 343.735 297.345 343.985 297.085 344.045C296.895 344.095 296.645 343.905 296.425 343.825H296.415Z" fill="#ADACAB"/>
<path d="M168.575 254.615C168.785 254.595 168.995 254.575 169.205 254.565C169.165 254.785 169.175 255.095 168.855 255.045C168.745 255.025 168.665 254.765 168.575 254.615Z" fill="#ADACAB"/>
<path d="M419.015 300.625C419.205 300.425 419.425 300.375 419.675 300.505C419.515 300.865 419.315 301.035 419.015 300.625Z" fill="#ADACAB"/>
<path d="M373.285 230.965C373.385 230.605 373.645 230.645 373.915 230.695C373.815 231.055 373.725 231.425 373.285 230.965Z" fill="#ADACAB"/>
<path d="M389.745 229.145C389.965 229.145 390.185 229.135 390.405 229.125C390.355 229.315 390.335 229.555 390.085 229.555C389.835 229.555 389.795 229.335 389.745 229.145Z" fill="#ADACAB"/>
<path d="M401.875 227.645C402.105 227.645 402.325 227.625 402.555 227.625C402.345 228.175 402.125 228.205 401.875 227.645Z" fill="#ADACAB"/>
<path d="M512.965 289.745C513.165 289.585 513.385 289.525 513.625 289.645C513.445 289.975 513.245 290.105 512.965 289.745Z" fill="#ADACAB"/>
<path d="M510.475 290.045C510.675 289.895 510.895 289.835 511.135 289.945C510.965 290.285 510.755 290.405 510.475 290.045Z" fill="#ADACAB"/>
<path d="M337.845 328.935C338.075 328.605 338.415 328.605 338.765 328.615C338.545 328.965 338.195 328.945 337.845 328.935Z" fill="#ADACAB"/>
<path d="M226.455 248.035C226.595 247.735 226.845 247.755 227.105 247.825C227.065 248.425 226.735 248.155 226.455 248.035Z" fill="#ADACAB"/>
<path d="M277.795 350.445C277.855 350.285 277.945 350.185 278.135 350.285C278.065 350.425 278.025 350.655 277.795 350.445Z" fill="#ADACAB"/>
<path d="M317.245 336.355C317.415 336.115 317.645 336.055 317.915 336.085C317.755 336.335 317.515 336.395 317.245 336.355Z" fill="#ADACAB"/>
<path d="M245.735 245.655C245.945 245.645 246.155 245.635 246.365 245.625C246.165 245.895 245.955 245.905 245.735 245.655Z" fill="#ADACAB"/>
<path d="M330.295 331.675C330.465 331.435 330.705 331.385 330.975 331.415C330.815 331.685 330.575 331.725 330.295 331.675Z" fill="#ADACAB"/>
<path d="M507.095 270.365C507.255 270.515 507.255 270.665 507.095 270.815C507.095 270.665 507.095 270.515 507.095 270.365Z" fill="#ADACAB"/>
<path d="M272.774 352.235C272.834 352.075 272.924 351.955 273.124 352.025C273.004 352.095 272.894 352.165 272.774 352.235Z" fill="#ADACAB"/>
<path d="M343.345 327.005C343.475 326.935 343.605 326.865 343.735 326.805C343.605 326.875 343.475 326.945 343.345 327.005Z" fill="#ADACAB"/>
<path d="M410.615 302.845C410.715 302.815 410.815 302.785 410.915 302.765C410.855 302.945 410.765 302.995 410.615 302.845Z" fill="#ADACAB"/>
<path d="M317.925 336.085C318.025 336.035 318.125 335.985 318.225 335.925C318.125 335.975 318.025 336.025 317.925 336.085Z" fill="#ADACAB"/>
<path d="M315.915 336.895C316.055 336.815 316.205 336.745 316.345 336.665C316.255 336.855 316.115 336.935 315.915 336.895Z" fill="#ADACAB"/>
<path d="M298.615 342.995C298.715 342.965 298.825 342.935 298.925 342.905C298.865 343.085 298.765 343.135 298.615 342.995Z" fill="#ADACAB"/>
<path d="M267.785 249.835L267.925 249.995C267.865 249.945 267.815 249.905 267.755 249.855L267.785 249.825V249.835Z" fill="#ADACAB"/>
<path d="M290.535 345.875C290.645 345.845 290.755 345.815 290.865 345.785C290.785 345.925 290.685 345.975 290.535 345.875Z" fill="#ADACAB"/>
<path d="M285.575 347.595C285.595 347.415 285.685 347.315 285.875 347.335C285.775 347.425 285.675 347.505 285.575 347.595Z" fill="#ADACAB"/>
<path d="M247.805 245.465C247.945 245.435 248.085 245.395 248.235 245.365C248.095 245.395 247.955 245.435 247.805 245.465Z" fill="#ADACAB"/>
<path d="M281.205 349.255C281.305 349.215 281.415 349.185 281.515 349.145C281.455 349.305 281.355 349.365 281.205 349.255Z" fill="#ADACAB"/>
<path d="M340.045 234.685C340.075 234.605 340.115 234.535 340.145 234.455C340.185 234.535 340.215 234.605 340.255 234.685L340.145 234.695H340.035L340.045 234.685Z" fill="#ADACAB"/>
<path d="M390.675 229.045C390.725 228.875 390.815 228.755 391.015 228.805C390.905 228.885 390.785 228.965 390.675 229.045Z" fill="#ADACAB"/>
<path d="M274.365 351.635C274.395 351.465 274.485 351.355 274.685 351.405C274.575 351.485 274.475 351.555 274.365 351.635Z" fill="#ADACAB"/>
<path d="M349.005 324.925C349.105 324.895 349.215 324.865 349.315 324.835C349.265 325.055 349.165 325.115 349.005 324.925Z" fill="#ADACAB"/>
</g>
<defs>
<clipPath id="clip0_87_1198">
<rect width="539.49" height="425.65" fill="white" transform="translate(0.754883 0.675003)"/>
</clipPath>
</defs>
</svg>
