<svg width="44" height="45" viewBox="0 0 44 45" fill="none" xmlns="http://www.w3.org/2000/svg">
<g clip-path="url(#clip0_304_1014)">
<path d="M7.33301 15.1668C7.33301 13.2219 8.10562 11.3566 9.48089 9.98138C10.8562 8.60611 12.7214 7.8335 14.6663 7.8335H29.333C31.2779 7.8335 33.1432 8.60611 34.5185 9.98138C35.8937 11.3566 36.6663 13.2219 36.6663 15.1668V29.8335C36.6663 31.7784 35.8937 33.6437 34.5185 35.0189C33.1432 36.3942 31.2779 37.1668 29.333 37.1668H14.6663C12.7214 37.1668 10.8562 36.3942 9.48089 35.0189C8.10562 33.6437 7.33301 31.7784 7.33301 29.8335V15.1668Z" stroke="#5B5B5B" stroke-width="2.75" stroke-linecap="round" stroke-linejoin="round"/>
<path d="M16.5 22.5C16.5 23.9587 17.0795 25.3576 18.1109 26.3891C19.1424 27.4205 20.5413 28 22 28C23.4587 28 24.8576 27.4205 25.8891 26.3891C26.9205 25.3576 27.5 23.9587 27.5 22.5C27.5 21.0413 26.9205 19.6424 25.8891 18.6109C24.8576 17.5795 23.4587 17 22 17C20.5413 17 19.1424 17.5795 18.1109 18.6109C17.0795 19.6424 16.5 21.0413 16.5 22.5Z" stroke="#5B5B5B" stroke-width="2.75" stroke-linecap="round" stroke-linejoin="round"/>
<path d="M30.25 14.25V14.2683" stroke="#5B5B5B" stroke-width="2.75" stroke-linecap="round" stroke-linejoin="round"/>
</g>
<defs>
<clipPath id="clip0_304_1014">
<rect width="44" height="44" fill="white" transform="translate(0 0.5)"/>
</clipPath>
</defs>
</svg>
